<svg width="129" height="113" viewBox="0 0 129 113" fill="none" xmlns="http://www.w3.org/2000/svg">
<path fill-rule="evenodd" clip-rule="evenodd" d="M1.56319 70.4001C11.0995 92.8457 33.0931 108.952 59.2261 109.864C95.0999 111.117 125.19 83.2646 126.433 47.6539C126.921 33.6848 122.897 20.5969 115.662 9.77284L109.94 12.8132C116.668 22.6571 120.425 34.6322 119.978 47.4285C118.858 79.5002 91.7586 104.585 59.4499 103.457C35.6993 102.627 15.745 87.8634 7.28523 67.3596L1.56319 70.4001Z" fill="#68D585"/>
<path fill-rule="evenodd" clip-rule="evenodd" d="M20.1472 72.6284C28.6683 85.5078 43.1619 94.2305 59.8776 94.8143C87.2099 95.7687 110.133 74.601 111.078 47.5349C111.724 29.043 101.944 12.5821 86.9662 3.70412L82.3712 8.44384C96.1279 15.9684 105.221 30.6971 104.641 47.3101C103.819 70.8554 83.8771 89.2696 60.1002 88.4393C45.0243 87.9128 32.0262 79.7759 24.7416 67.8892L20.1472 72.6284Z" fill="#161C2D"/>
</svg>
