<svg width="1342" height="635" viewBox="0 0 1342 635" fill="none" xmlns="http://www.w3.org/2000/svg">
<g opacity="0.0636858">
<mask id="mask0_0_2569" style="mask-type:luminance" maskUnits="userSpaceOnUse" x="81" y="-136" width="1261" height="1258">
<path fill-rule="evenodd" clip-rule="evenodd" d="M81.2168 -135.5H1341.24V1121.24H81.2168V-135.5Z" fill="white"/>
</mask>
<g mask="url(#mask0_0_2569)">
<path fill-rule="evenodd" clip-rule="evenodd" d="M1338.94 387.11C1339.34 378.147 1335.17 369.733 1327.8 364.608L618.801 -128.548C613.088 -132.525 606.16 -134.043 599.298 -132.826C592.44 -131.605 586.465 -127.796 582.484 -122.094L88.1774 584.91C85.3424 588.965 83.7284 593.712 83.5134 598.63C83.1224 607.595 87.2904 616.005 94.6584 621.136L803.654 1114.29C809.373 1118.27 816.294 1119.79 823.16 1118.57C830.017 1117.34 835.993 1113.54 839.976 1107.84L1334.28 400.835C1337.12 396.778 1338.73 392.029 1338.94 387.11M81.2444 598.532C81.4804 593.182 83.2354 588.026 86.3184 583.616L580.619 -123.389C584.951 -129.585 591.444 -133.727 598.902 -135.054C606.36 -136.378 613.887 -134.727 620.101 -130.406L1329.1 362.752C1337.11 368.326 1341.64 377.468 1341.21 387.212C1340.98 392.56 1339.23 397.717 1336.14 402.13L841.836 1109.13C837.506 1115.33 831.016 1119.47 823.558 1120.79C816.102 1122.12 808.573 1120.47 802.356 1116.14L93.3634 622.988C85.3514 617.418 80.8184 608.274 81.2444 598.532" fill="#DADADA"/>
</g>
<path fill-rule="evenodd" clip-rule="evenodd" d="M1306.01 379.979C1306.39 371.38 1302.43 363.258 1295.42 358.253L610.483 -131.187C604.97 -135.131 598.245 -136.695 591.55 -135.594C584.854 -134.491 578.993 -130.854 575.04 -125.354L84.4584 557.654C81.5804 561.665 79.9444 566.375 79.7304 571.278C79.3544 579.879 83.3124 588.002 90.3204 593.002L775.256 1082.45C786.648 1090.58 802.544 1087.97 810.697 1076.62L1301.28 393.604C1304.16 389.595 1305.8 384.881 1306.01 379.979M77.4644 571.176C77.6954 565.837 79.4784 560.704 82.6154 556.336L573.198 -126.67C577.501 -132.663 583.888 -136.623 591.179 -137.825C598.471 -139.025 605.796 -137.321 611.805 -133.028L1296.74 356.415C1304.38 361.867 1308.69 370.711 1308.28 380.077C1308.04 385.42 1306.26 390.556 1303.12 394.922L812.54 1077.93C803.659 1090.3 786.335 1093.15 773.934 1084.29L88.9974 594.844C81.3674 589.393 77.0534 580.546 77.4644 571.176" fill="#DADADA"/>
<path fill-rule="evenodd" clip-rule="evenodd" d="M1273.08 372.845C1273.44 364.612 1269.69 356.779 1263.05 351.896L602.168 -133.828C591.194 -141.893 575.689 -139.552 567.602 -128.61L80.7442 530.402C77.8182 534.358 76.1582 539.039 75.9442 543.931C75.5842 552.164 79.3362 559.994 85.9802 564.875L746.852 1050.6C752.173 1054.51 758.693 1056.12 765.223 1055.13C771.755 1054.15 777.508 1050.68 781.424 1045.39L1268.28 386.37C1271.21 382.415 1272.87 377.737 1273.08 372.845M73.6782 543.827C73.9122 538.486 75.7212 533.38 78.9152 529.062L565.776 -129.952C574.604 -141.9 591.532 -144.455 603.512 -135.65L1264.39 350.074C1271.64 355.408 1275.74 363.959 1275.35 372.946C1275.11 378.287 1273.3 383.393 1270.11 387.715L783.25 1046.73C778.972 1052.51 772.695 1056.3 765.564 1057.37C758.437 1058.45 751.315 1056.69 745.513 1052.43L84.6353 566.699C77.3833 561.367 73.2852 552.819 73.6782 543.827" fill="#DADADA"/>
<path fill-rule="evenodd" clip-rule="evenodd" d="M1240.16 365.711C1240.5 357.838 1236.95 350.3 1230.67 345.541L593.85 -136.468C588.731 -140.341 582.411 -141.995 576.047 -141.126C569.688 -140.258 564.044 -136.969 560.164 -131.866L77.0196 503.153C74.0486 507.063 72.3636 511.703 72.1506 516.582C71.8066 524.453 75.3526 531.991 81.6386 536.75L718.461 1018.76C729.018 1026.75 744.129 1024.69 752.144 1014.16L1235.29 379.141C1238.26 375.234 1239.94 370.591 1240.16 365.711M69.8866 516.48C70.1176 511.14 71.9616 506.056 75.2146 501.784L558.355 -133.234C562.605 -138.818 568.779 -142.416 575.74 -143.369C582.702 -144.319 589.619 -142.508 595.221 -138.271L1232.04 343.74C1238.92 348.946 1242.8 357.196 1242.42 365.811C1242.19 371.151 1240.35 376.235 1237.09 380.51L753.952 1015.53C745.18 1027.05 728.644 1029.31 717.087 1020.56L80.2706 538.55C73.3906 533.343 69.5086 525.098 69.8866 516.48" fill="#DADADA"/>
<path fill-rule="evenodd" clip-rule="evenodd" d="M1207.23 358.58C1207.56 351.064 1204.21 343.814 1198.28 339.184L585.529 -139.11C580.612 -142.946 574.492 -144.646 568.296 -143.892C562.096 -143.139 556.568 -140.025 552.721 -135.122L73.2976 475.901C70.2746 479.75 68.5666 484.356 68.3536 489.227C68.0246 496.742 71.3716 503.992 77.3016 508.623L690.057 986.918C694.977 990.753 701.093 992.451 707.292 991.698C713.489 990.947 719.02 987.83 722.869 982.928L1202.29 371.907C1205.31 368.059 1207.02 363.448 1207.23 358.58M66.0866 489.126C66.3226 483.781 68.1956 478.73 71.5106 474.5L550.934 -136.517C555.154 -141.895 561.224 -145.312 568.019 -146.137C574.818 -146.964 581.531 -145.101 586.928 -140.89L1199.68 337.403C1206.19 342.481 1209.86 350.435 1209.5 358.678C1209.26 364.022 1207.39 369.079 1204.08 373.305L724.655 984.323C720.434 989.707 714.364 993.123 707.567 993.943C700.769 994.775 694.053 992.91 688.663 988.7L75.9026 510.406C69.3966 505.326 65.7276 497.371 66.0866 489.126" fill="#DADADA"/>
<path fill-rule="evenodd" clip-rule="evenodd" d="M1174.32 351.448C1174.63 344.288 1171.49 337.33 1165.91 332.831L577.208 -141.749C567.47 -149.599 553.146 -148.087 545.279 -138.377L69.5733 448.654C66.5043 452.44 64.7633 457.016 64.5503 461.877C64.2363 469.039 67.3843 475.995 72.9643 480.495L661.66 955.072C666.379 958.88 672.298 960.62 678.325 959.985C684.359 959.344 689.78 956.405 693.589 951.702L1169.3 364.676C1172.37 360.884 1174.11 356.308 1174.32 351.448M62.2853 461.779C62.5173 456.431 64.4303 451.401 67.8113 447.229L543.513 -139.799C552.166 -150.479 567.921 -152.143 578.633 -143.51L1167.33 331.072C1173.47 336.016 1176.93 343.672 1176.59 351.546C1176.35 356.892 1174.44 361.924 1171.06 366.1L695.355 953.122C691.165 958.299 685.198 961.533 678.568 962.233C671.933 962.936 665.423 961.02 660.236 956.833L71.5393 482.255C65.3993 477.308 61.9403 469.652 62.2853 461.779" fill="#DADADA"/>
<path fill-rule="evenodd" clip-rule="evenodd" d="M1141.41 344.313C1141.71 337.408 1138.84 330.903 1133.52 326.472L568.888 -144.393C564.367 -148.158 558.653 -149.947 552.786 -149.425C546.92 -148.904 541.612 -146.135 537.836 -141.63L65.8514 421.401C62.7194 425.137 60.9524 429.672 60.7414 434.523C60.4404 441.432 63.3184 447.939 68.6284 452.368L633.265 923.234C642.593 931.012 656.52 929.773 664.315 920.471L1136.3 357.441C1139.43 353.707 1141.2 349.168 1141.41 344.313M58.4774 434.422C58.7084 429.075 60.6574 424.068 64.1094 419.947L536.093 -143.082C540.26 -148.052 546.114 -151.105 552.584 -151.678C559.053 -152.254 565.36 -150.281 570.342 -146.127L1134.98 324.734C1140.84 329.622 1144.01 336.792 1143.68 344.415C1143.44 349.77 1141.49 354.773 1138.04 358.89L666.056 921.923C657.456 932.181 642.095 933.544 631.807 924.97L67.1724 454.109C61.3114 449.22 58.1414 442.046 58.4774 434.422" fill="#DADADA"/>
<path fill-rule="evenodd" clip-rule="evenodd" d="M1108.51 337.183C1108.79 330.624 1106.11 324.406 1101.14 320.11L560.567 -147.032C556.249 -150.768 550.732 -152.601 545.029 -152.193C539.329 -151.787 534.132 -149.193 530.388 -144.886L62.1305 394.149C58.9365 397.825 57.1385 402.326 56.9265 407.174C56.6395 413.731 59.3255 419.953 64.2905 424.247L604.865 891.393C609.187 895.124 614.705 896.955 620.406 896.55C626.102 896.147 631.299 893.552 635.042 889.245L1103.3 350.207C1106.5 346.535 1108.3 342.03 1108.51 337.183M54.6595 407.076C54.8935 401.713 56.8865 396.732 60.4155 392.67L528.674 -146.367C532.813 -151.132 538.564 -154.002 544.868 -154.45C551.174 -154.9 557.277 -152.873 562.052 -148.744L1102.63 318.4C1108.12 323.151 1111.09 330.032 1110.78 337.282C1110.54 342.642 1108.55 347.624 1105.02 351.693L636.756 890.723C632.621 895.491 626.869 898.36 620.566 898.811C614.261 899.255 608.157 897.232 603.384 893.101L62.8055 425.955C57.3105 421.206 54.3445 414.327 54.6595 407.076" fill="#DADADA"/>
<path fill-rule="evenodd" clip-rule="evenodd" d="M1075.61 330.05C1075.88 323.843 1073.39 317.903 1068.76 313.75L552.241 -149.681C548.124 -153.378 542.807 -155.252 537.273 -154.96C531.74 -154.67 526.649 -152.248 522.945 -148.139L58.4033 366.902C55.1923 370.458 53.3103 375.05 53.1013 379.823C52.8323 386.029 55.3303 391.971 59.9553 396.12L576.471 859.555C580.587 863.248 585.904 865.125 591.443 864.836C596.972 864.544 602.062 862.123 605.77 858.017L1070.31 342.973C1073.52 339.416 1075.41 334.823 1075.61 330.05M50.8343 379.726C51.0683 374.428 53.1533 369.333 56.7173 365.39L521.258 -149.652C525.367 -154.208 531.014 -156.898 537.155 -157.221C543.295 -157.544 549.192 -155.461 553.762 -151.361L1070.28 312.071C1075.41 316.674 1078.18 323.264 1077.88 330.149C1077.65 335.446 1075.56 340.535 1072 344.487L607.455 859.529C603.346 864.082 597.7 866.773 591.56 867.095C585.423 867.418 579.523 865.339 574.954 861.234L58.4373 397.799C53.3043 393.199 50.5363 386.608 50.8343 379.726" fill="#DADADA"/>
<path fill-rule="evenodd" clip-rule="evenodd" d="M1042.73 322.917C1042.98 317.055 1040.67 311.396 1036.38 307.388L543.922 -152.325C540.001 -155.987 534.882 -157.907 529.517 -157.729C524.149 -157.552 519.169 -155.302 515.497 -151.39L54.6775 339.654C51.3995 343.146 49.4795 347.699 49.2705 352.474C49.0155 358.337 51.3295 363.995 55.6165 368.002L548.076 827.713C556.169 835.273 568.922 834.855 576.499 826.783L1037.32 335.737C1040.6 332.244 1042.52 327.692 1042.73 322.917M47.0035 352.376C47.2375 347.062 49.3745 341.994 53.0195 338.108L513.842 -152.936C517.926 -157.289 523.464 -159.794 529.438 -159.99C535.413 -160.186 541.107 -158.052 545.472 -153.976L1037.93 305.739C1042.7 310.196 1045.28 316.492 1044.99 323.016C1044.76 328.328 1042.63 333.394 1038.98 337.285L578.153 828.33C569.722 837.313 555.531 837.778 546.526 829.366L54.0685 369.652C49.2945 365.196 46.7205 358.895 47.0035 352.376" fill="#DADADA"/>
<path fill-rule="evenodd" clip-rule="evenodd" d="M1009.85 315.784C1010.09 310.266 1007.96 304.885 1004 301.028L535.601 -154.974C527.912 -162.457 515.552 -162.308 508.05 -154.642L50.9491 312.407C47.5991 315.825 45.6371 320.346 45.4301 325.118C45.1871 330.643 47.3231 336.02 51.2861 339.878L519.68 795.882C527.371 803.362 539.727 803.209 547.227 795.547L1004.33 328.501C1007.68 325.078 1009.64 320.56 1009.85 315.784M43.1651 325.017C43.3961 319.689 45.5871 314.646 49.3261 310.824L506.429 -156.225C514.805 -164.782 528.6 -164.947 537.182 -156.591L1005.58 299.408C1010 303.714 1012.39 309.72 1012.12 315.885C1011.89 321.216 1009.7 326.261 1005.95 330.082L548.85 797.128C540.476 805.686 526.68 805.854 518.095 797.497L49.7041 341.494C45.2791 337.189 42.8961 331.183 43.1651 325.017" fill="#DADADA"/>
<path fill-rule="evenodd" clip-rule="evenodd" d="M976.982 308.653C977.211 303.467 975.25 298.371 971.612 294.668L527.275 -157.62C519.994 -165.029 508.03 -165.152 500.602 -157.895L47.2207 285.156C43.7937 288.507 41.7877 292.985 41.5767 297.77C41.3517 302.955 43.3137 308.051 46.9517 311.758L491.282 764.048C498.566 771.457 510.528 771.576 517.959 764.313L971.34 321.266C974.768 317.916 976.773 313.435 976.982 308.653M39.3107 297.67C39.5457 292.314 41.7947 287.296 45.6337 283.541L499.013 -159.512C507.336 -167.642 520.738 -167.503 528.894 -159.204L973.232 293.082C977.311 297.232 979.502 302.943 979.25 308.751C979.015 314.111 976.767 319.127 972.927 322.882L519.548 765.936C511.231 774.065 497.822 773.928 489.667 765.63L45.3297 313.345C41.2537 309.192 39.0577 303.477 39.3107 297.67" fill="#DADADA"/>
<path fill-rule="evenodd" clip-rule="evenodd" d="M944.125 301.522C944.339 296.596 942.601 291.899 939.222 288.296L518.946 -160.269C515.622 -163.821 511.103 -165.871 506.233 -166.036C501.359 -166.201 496.713 -164.463 493.151 -161.145L43.493 257.911C39.978 261.186 37.929 265.626 37.719 270.418C37.504 275.343 39.242 280.04 42.616 283.643L462.894 732.209C469.766 739.543 481.336 739.931 488.691 733.083L938.352 314.027C941.867 310.754 943.913 306.312 944.125 301.522M35.452 270.315C35.688 264.926 37.991 259.941 41.938 256.261L491.602 -162.798C495.607 -166.531 500.828 -168.483 506.31 -168.296C511.787 -168.111 516.863 -165.808 520.609 -161.814L940.881 286.753C944.678 290.803 946.633 296.084 946.393 301.621C946.157 307.009 943.851 312.003 939.898 315.68L490.238 734.739C481.976 742.438 468.962 742.001 461.235 733.758L40.96 285.187C37.168 281.134 35.208 275.858 35.452 270.315" fill="#DADADA"/>
<path fill-rule="evenodd" clip-rule="evenodd" d="M911.278 294.39C911.481 289.792 909.903 285.372 906.84 281.932L510.624 -162.92C504.157 -170.179 492.976 -170.842 485.698 -164.397L39.7567 230.668C36.1537 233.858 34.0547 238.259 33.8457 243.064C33.6457 247.658 35.2217 252.086 38.2857 255.524L434.502 700.377C440.968 707.638 452.145 708.301 459.429 701.851L905.366 306.789C908.971 303.598 911.071 299.193 911.278 294.39M31.5777 242.965C31.8157 237.548 34.1867 232.577 38.2537 228.976L484.192 -166.089C492.404 -173.362 505.022 -172.615 512.32 -164.424L908.538 280.431C911.993 284.31 913.775 289.302 913.547 294.489C913.31 299.911 910.939 304.878 906.876 308.481L460.934 703.55C452.719 710.817 440.101 710.073 432.802 701.879L36.5887 257.031C33.1317 253.147 31.3517 248.153 31.5777 242.965" fill="#DADADA"/>
<path fill-rule="evenodd" clip-rule="evenodd" d="M878.448 287.26C878.635 282.99 877.215 278.834 874.455 275.561L502.298 -165.574C499.365 -169.054 495.244 -171.187 490.703 -171.576C486.158 -171.967 481.733 -170.572 478.245 -167.644L36.0242 203.426C32.3792 206.483 30.1712 210.961 29.9622 215.712C29.7762 219.983 31.1912 224.136 33.9532 227.412L406.109 668.549C412.168 675.73 422.961 676.658 430.163 670.615L872.384 299.551C876.029 296.492 878.24 292.011 878.448 287.26M27.6942 215.614C27.9302 210.228 30.4342 205.156 34.5612 201.694L476.783 -169.376C480.739 -172.691 485.748 -174.275 490.896 -173.831C496.044 -173.388 500.709 -170.972 504.034 -167.031L876.188 274.106C879.318 277.815 880.923 282.521 880.713 287.357C880.479 292.741 877.974 297.816 873.844 301.283L431.622 672.348C423.463 679.195 411.237 678.142 404.374 670.005L32.2202 228.865C29.0902 225.158 27.4832 220.452 27.6942 215.614" fill="#DADADA"/>
<path fill-rule="evenodd" clip-rule="evenodd" d="M845.628 280.129C845.8 276.175 844.536 272.292 842.069 269.19L493.971 -168.228C491.23 -171.671 487.31 -173.846 482.93 -174.349C478.552 -174.853 474.241 -173.625 470.792 -170.895L32.287 176.18C28.54 179.146 26.272 183.584 26.062 188.361C25.892 192.309 27.155 196.193 29.622 199.299L377.715 636.719C383.373 643.829 393.772 645.024 400.901 639.382L839.4 292.313C843.15 289.346 845.421 284.903 845.628 280.129M23.795 188.259C24.029 182.83 26.613 177.783 30.88 174.406L469.378 -172.667C473.305 -175.774 478.209 -177.17 483.19 -176.597C488.171 -176.024 492.631 -173.552 495.749 -169.634L843.844 267.785C846.651 271.312 848.091 275.733 847.894 280.229C847.656 285.658 845.079 290.709 840.812 294.082L402.306 641.157C394.21 647.571 382.376 646.211 375.941 638.126L27.844 200.709C25.039 197.174 23.599 192.754 23.795 188.259" fill="#DADADA"/>
<path fill-rule="evenodd" clip-rule="evenodd" d="M812.824 273.002C812.983 269.361 811.866 265.745 809.68 262.816L485.643 -170.887C480.388 -177.918 470.379 -179.379 463.326 -174.142L28.5532 148.937C24.6902 151.804 22.3542 156.203 22.1452 161.002C21.9882 164.642 23.1062 168.256 25.2902 171.19L349.329 604.896C354.581 611.926 364.591 613.385 371.639 608.148L806.422 285.071C810.283 282.203 812.613 277.805 812.824 273.002M19.8782 160.904C20.1172 155.418 22.7872 150.397 27.1962 147.117L461.972 -175.956C470.025 -181.94 481.461 -180.271 487.463 -172.238L811.497 261.466C813.994 264.809 815.275 268.941 815.091 273.101C814.852 278.586 812.185 283.609 807.775 286.888L372.997 609.961C364.943 615.944 353.51 614.273 347.508 606.246L23.4712 172.541C20.9742 169.194 19.6972 165.062 19.8782 160.904" fill="#DADADA"/>
<path fill-rule="evenodd" clip-rule="evenodd" d="M780.038 265.876C780.184 262.492 779.237 259.23 777.294 256.442L477.317 -173.547C472.465 -180.503 462.844 -182.226 455.867 -177.39L24.8079 121.693C20.8289 124.455 18.4249 128.81 18.2139 133.646C18.0679 137.03 19.0179 140.29 20.9619 143.076L320.935 573.07C325.787 580.03 335.407 581.751 342.385 576.911L773.446 277.831C777.425 275.071 779.826 270.71 780.038 265.876M15.9489 133.546C16.1899 128.001 18.9489 123.001 23.5159 119.834L454.571 -179.246C462.574 -184.795 473.612 -182.819 479.177 -174.84L779.154 255.15C781.384 258.348 782.475 262.089 782.303 265.973C782.062 271.521 779.306 276.52 774.745 279.689L343.679 578.772C335.679 584.321 324.64 582.344 319.075 574.365L19.0999 144.373C16.8679 141.176 15.7789 137.434 15.9489 133.546" fill="#DADADA"/>
<path fill-rule="evenodd" clip-rule="evenodd" d="M747.271 258.75C747.406 255.667 746.59 252.665 744.903 250.064L468.987 -176.212C464.534 -183.087 455.301 -185.074 448.403 -180.636L21.0641 94.4473C17.0161 97.0573 14.4711 101.483 14.2631 106.291C14.1291 109.372 14.9491 112.372 16.6341 114.973L292.547 541.254C296.999 548.127 306.231 550.112 313.13 545.672L740.471 270.588C744.517 267.982 747.058 263.557 747.271 258.75M11.9971 106.191C12.2391 100.649 15.1701 95.5503 19.8351 92.5493L447.173 -182.537C455.119 -187.653 465.761 -185.363 470.893 -177.437L746.807 248.837C748.749 251.834 749.692 255.296 749.537 258.848C749.296 264.387 746.366 269.489 741.698 272.488L314.36 547.574C306.414 552.688 295.772 550.402 290.642 542.478L14.7231 116.205C12.7871 113.204 11.8411 109.744 11.9971 106.191" fill="#DADADA"/>
<path fill-rule="evenodd" clip-rule="evenodd" d="M714.522 251.621C714.645 248.838 713.949 246.091 712.517 243.683L460.663 -178.877C456.606 -185.678 447.758 -187.925 440.939 -183.884L17.3216 67.2064C13.1335 69.6874 10.5045 74.0724 10.2925 78.9314C10.1705 81.7184 10.8665 84.4634 12.3015 86.8744L264.157 509.433C268.213 516.235 277.059 518.482 283.876 514.437L707.498 263.348C711.686 260.866 714.31 256.483 714.522 251.621M8.02755 78.8324C8.27355 73.2064 11.3125 68.1324 16.1595 65.2624L439.777 -185.829C447.675 -190.508 457.917 -187.906 462.608 -180.032L714.463 242.524C716.127 245.315 716.929 248.492 716.79 251.724C716.544 257.349 713.503 262.421 708.657 265.296L285.036 516.386C277.143 521.062 266.899 518.463 262.207 510.59L10.3505 88.0304C8.68955 85.2424 7.88655 82.0584 8.02755 78.8324" fill="#DADADA"/>
<path fill-rule="evenodd" clip-rule="evenodd" d="M681.797 244.502C681.906 242.002 681.33 239.509 680.123 237.298L452.329 -181.545C448.671 -188.271 440.211 -190.777 433.464 -187.13L13.567 39.9612C9.23096 42.3082 6.51396 46.6462 6.29896 51.5692C6.18896 54.0702 6.76596 56.5622 7.96996 58.7752L235.767 477.618C239.425 484.343 247.885 486.85 254.631 483.202L674.529 256.107C678.866 253.762 681.583 249.426 681.797 244.502M4.03296 51.4722C4.27896 45.8332 7.51696 40.6632 12.487 37.9762L432.385 -189.119C440.228 -193.359 450.071 -190.445 454.325 -182.622L682.12 236.219C683.52 238.796 684.188 241.689 684.065 244.601C683.816 250.238 680.576 255.41 675.613 258.099L255.711 485.193C247.868 489.434 238.027 486.52 233.771 478.694L5.97896 59.8542C4.57796 57.2772 3.90496 54.3802 4.03296 51.4722" fill="#DADADA"/>
<mask id="mask1_0_2569" style="mask-type:luminance" maskUnits="userSpaceOnUse" x="0" y="-195" width="652" height="651">
<path fill-rule="evenodd" clip-rule="evenodd" d="M0 -194.004H651.383V455.594H0V-194.004Z" fill="white"/>
</mask>
<g mask="url(#mask1_0_2569)">
<path fill-rule="evenodd" clip-rule="evenodd" d="M649.102 237.38C649.198 235.158 648.726 232.922 647.735 230.91L444.001 -184.217C440.742 -190.866 432.663 -193.631 425.996 -190.378L9.81476 12.7225C5.38176 14.8855 2.49776 19.2865 2.28276 24.2065C2.18576 26.4305 2.65476 28.6685 3.64376 30.6815L207.378 445.808C210.643 452.455 218.717 455.22 225.385 451.965L641.566 248.87C645.996 246.705 648.885 242.303 649.102 237.38M0.0147602 24.1075C0.26576 18.3575 3.64076 13.2145 8.81476 10.6905L424.996 -192.411C432.786 -196.21 442.228 -192.982 446.042 -185.212L649.779 229.915C650.931 232.266 651.482 234.881 651.369 237.48C651.117 243.231 647.745 248.375 642.563 250.9L226.383 453.997C218.591 457.802 209.153 454.573 205.34 446.802L1.60176 31.6735C0.44876 29.3265 -0.0992398 26.7075 0.0147602 24.1075" fill="#DADADA"/>
</g>
</g>
</svg>
