<svg width="177" height="22" viewBox="0 0 177 22" fill="none" xmlns="http://www.w3.org/2000/svg">
<path d="M1.66 21C1.45467 21 1.28667 20.9347 1.156 20.804C1.02533 20.6733 0.96 20.5053 0.96 20.3V2.1C0.96 1.89467 1.02533 1.72667 1.156 1.596C1.28667 1.46533 1.45467 1.4 1.66 1.4H10.2C11.8053 1.4 13.1213 1.624 14.148 2.072C15.1747 2.52 15.9307 3.164 16.416 4.004C16.92 4.82533 17.172 5.80533 17.172 6.944C17.172 7.616 17.0413 8.21333 16.78 8.736C16.5373 9.24 16.2293 9.66 15.856 9.996C15.5013 10.332 15.1653 10.5747 14.848 10.724C15.5573 11.06 16.1827 11.6107 16.724 12.376C17.284 13.1413 17.564 14.0373 17.564 15.064C17.564 16.296 17.284 17.36 16.724 18.256C16.1827 19.1333 15.38 19.8147 14.316 20.3C13.2707 20.7667 11.9827 21 10.452 21H1.66ZM5.972 17.36H9.892C10.6947 17.36 11.3013 17.1267 11.712 16.66C12.1227 16.1933 12.328 15.6613 12.328 15.064C12.328 14.4107 12.1133 13.86 11.684 13.412C11.2733 12.964 10.676 12.74 9.892 12.74H5.972V17.36ZM5.972 9.184H9.64C10.4053 9.184 10.9747 8.988 11.348 8.596C11.74 8.204 11.936 7.7 11.936 7.084C11.936 6.48667 11.74 6.00133 11.348 5.628C10.9747 5.236 10.4053 5.04 9.64 5.04H5.972V9.184ZM20.9113 21C20.706 21 20.538 20.9347 20.4073 20.804C20.2766 20.6733 20.2113 20.5053 20.2113 20.3V7.14C20.2113 6.95333 20.2766 6.79467 20.4073 6.664C20.538 6.51467 20.706 6.44 20.9113 6.44H24.1313C24.3366 6.44 24.5046 6.51467 24.6353 6.664C24.766 6.79467 24.8313 6.95333 24.8313 7.14V8.26C25.3353 7.68133 25.9326 7.23333 26.6233 6.916C27.3326 6.59867 28.126 6.44 29.0033 6.44H30.2353C30.422 6.44 30.5806 6.50533 30.7113 6.636C30.8606 6.76667 30.9353 6.93467 30.9353 7.14V10.024C30.9353 10.2107 30.8606 10.3787 30.7113 10.528C30.5806 10.6587 30.422 10.724 30.2353 10.724H27.5193C26.754 10.724 26.1566 10.9387 25.7273 11.368C25.3166 11.7787 25.1113 12.3667 25.1113 13.132V20.3C25.1113 20.5053 25.0366 20.6733 24.8873 20.804C24.7566 20.9347 24.5886 21 24.3833 21H20.9113ZM36.8925 21.28C35.8845 21.28 34.9791 21.0933 34.1765 20.72C33.3925 20.328 32.7671 19.8053 32.3005 19.152C31.8338 18.4987 31.6005 17.7613 31.6005 16.94C31.6005 15.6147 32.1418 14.5693 33.2245 13.804C34.3071 13.02 35.7445 12.488 37.5365 12.208L41.0365 11.676V11.284C41.0365 10.612 40.8965 10.0987 40.6165 9.744C40.3365 9.38933 39.8231 9.212 39.0765 9.212C38.5538 9.212 38.1245 9.31467 37.7885 9.52C37.4711 9.72533 37.2191 10.0053 37.0325 10.36C36.8645 10.6027 36.6311 10.724 36.3325 10.724H33.1965C32.9911 10.724 32.8325 10.668 32.7205 10.556C32.6085 10.4253 32.5618 10.276 32.5805 10.108C32.5805 9.772 32.7018 9.38933 32.9445 8.96C33.2058 8.512 33.5978 8.07333 34.1205 7.644C34.6431 7.21467 35.3151 6.86 36.1365 6.58C36.9578 6.3 37.9471 6.16 39.1045 6.16C40.3178 6.16 41.3538 6.3 42.2125 6.58C43.0711 6.86 43.7618 7.252 44.2845 7.756C44.8258 8.26 45.2271 8.85733 45.4885 9.548C45.7498 10.22 45.8805 10.9667 45.8805 11.788V20.3C45.8805 20.5053 45.8058 20.6733 45.6565 20.804C45.5258 20.9347 45.3671 21 45.1805 21H41.9325C41.7271 21 41.5591 20.9347 41.4285 20.804C41.2978 20.6733 41.2325 20.5053 41.2325 20.3V19.32C40.9898 19.6747 40.6631 20.0013 40.2525 20.3C39.8418 20.5987 39.3565 20.832 38.7965 21C38.2551 21.1867 37.6205 21.28 36.8925 21.28ZM38.2085 18.088C38.7498 18.088 39.2351 17.976 39.6645 17.752C40.1125 17.5093 40.4578 17.1453 40.7005 16.66C40.9618 16.156 41.0925 15.5307 41.0925 14.784V14.392L38.7125 14.812C37.8351 14.9613 37.1911 15.1947 36.7805 15.512C36.3885 15.8107 36.1925 16.1653 36.1925 16.576C36.1925 16.8933 36.2858 17.164 36.4725 17.388C36.6591 17.612 36.9018 17.7893 37.2005 17.92C37.4991 18.032 37.8351 18.088 38.2085 18.088ZM49.5846 21C49.3792 21 49.2112 20.9347 49.0806 20.804C48.9499 20.6733 48.8846 20.5053 48.8846 20.3V7.14C48.8846 6.93467 48.9499 6.76667 49.0806 6.636C49.2112 6.50533 49.3792 6.44 49.5846 6.44H52.8886C53.0752 6.44 53.2339 6.50533 53.3646 6.636C53.5139 6.76667 53.5886 6.93467 53.5886 7.14V20.3C53.5886 20.5053 53.5139 20.6733 53.3646 20.804C53.2339 20.9347 53.0752 21 52.8886 21H49.5846ZM49.5566 4.34C49.3512 4.34 49.1832 4.27467 49.0526 4.144C48.9219 4.01333 48.8566 3.84533 48.8566 3.64V1.148C48.8566 0.942666 48.9219 0.774666 49.0526 0.643998C49.1832 0.494666 49.3512 0.42 49.5566 0.42H52.8886C53.0939 0.42 53.2619 0.494666 53.3926 0.643998C53.5419 0.774666 53.6166 0.942666 53.6166 1.148V3.64C53.6166 3.84533 53.5419 4.01333 53.3926 4.144C53.2619 4.27467 53.0939 4.34 52.8886 4.34H49.5566ZM58.2884 21C58.083 21 57.915 20.9347 57.7844 20.804C57.6537 20.6733 57.5884 20.5053 57.5884 20.3V7.14C57.5884 6.93467 57.6537 6.76667 57.7844 6.636C57.915 6.50533 58.083 6.44 58.2884 6.44H61.5084C61.7137 6.44 61.8817 6.50533 62.0124 6.636C62.143 6.76667 62.2084 6.93467 62.2084 7.14V8.204C62.6937 7.62533 63.3284 7.14 64.1124 6.748C64.8964 6.356 65.8204 6.16 66.8844 6.16C67.967 6.16 68.919 6.40267 69.7404 6.888C70.5804 7.37333 71.2337 8.092 71.7004 9.044C72.1857 9.97733 72.4284 11.1253 72.4284 12.488V20.3C72.4284 20.5053 72.3537 20.6733 72.2044 20.804C72.0737 20.9347 71.915 21 71.7284 21H68.2004C68.0137 21 67.8457 20.9347 67.6964 20.804C67.5657 20.6733 67.5004 20.5053 67.5004 20.3V12.656C67.5004 11.7787 67.2857 11.1067 66.8564 10.64C66.4457 10.1547 65.8297 9.912 65.0084 9.912C64.243 9.912 63.627 10.1547 63.1604 10.64C62.7124 11.1067 62.4884 11.7787 62.4884 12.656V20.3C62.4884 20.5053 62.4137 20.6733 62.2644 20.804C62.1337 20.9347 61.975 21 61.7884 21H58.2884ZM79.2116 21C78.9316 21 78.7262 20.9347 78.5956 20.804C78.4649 20.6733 78.3622 20.5053 78.2876 20.3L74.2556 7.336C74.2182 7.24267 74.1996 7.14933 74.1996 7.056C74.1996 6.888 74.2649 6.748 74.3956 6.636C74.5262 6.50533 74.6756 6.44 74.8436 6.44H77.7276C77.9702 6.44 78.1569 6.50533 78.2876 6.636C78.4369 6.76667 78.5302 6.89733 78.5676 7.028L80.9196 15.036L83.4396 7.056C83.4769 6.92533 83.5609 6.79467 83.6916 6.664C83.8409 6.51467 84.0462 6.44 84.3076 6.44H86.1556C86.4169 6.44 86.6129 6.51467 86.7436 6.664C86.8929 6.79467 86.9862 6.92533 87.0236 7.056L89.5436 15.036L91.8956 7.028C91.9329 6.89733 92.0169 6.76667 92.1476 6.636C92.2969 6.50533 92.4929 6.44 92.7356 6.44H95.6196C95.7876 6.44 95.9276 6.50533 96.0396 6.636C96.1702 6.748 96.2356 6.888 96.2356 7.056C96.2356 7.14933 96.2262 7.24267 96.2076 7.336L92.1756 20.3C92.1196 20.5053 92.0169 20.6733 91.8676 20.804C91.7369 20.9347 91.5316 21 91.2516 21H88.7316C88.4702 21 88.2649 20.9347 88.1156 20.804C87.9662 20.6733 87.8636 20.5053 87.8076 20.3L85.2316 12.628L82.6556 20.3C82.5996 20.5053 82.4969 20.6733 82.3476 20.804C82.1982 20.9347 81.9929 21 81.7316 21H79.2116ZM102.333 21.28C101.325 21.28 100.419 21.0933 99.6168 20.72C98.8328 20.328 98.2074 19.8053 97.7408 19.152C97.2741 18.4987 97.0408 17.7613 97.0408 16.94C97.0408 15.6147 97.5821 14.5693 98.6648 13.804C99.7474 13.02 101.185 12.488 102.977 12.208L106.477 11.676V11.284C106.477 10.612 106.337 10.0987 106.057 9.744C105.777 9.38933 105.263 9.212 104.517 9.212C103.994 9.212 103.565 9.31467 103.229 9.52C102.911 9.72533 102.659 10.0053 102.473 10.36C102.305 10.6027 102.071 10.724 101.773 10.724H98.6368C98.4314 10.724 98.2728 10.668 98.1608 10.556C98.0488 10.4253 98.0021 10.276 98.0208 10.108C98.0208 9.772 98.1421 9.38933 98.3848 8.96C98.6461 8.512 99.0381 8.07333 99.5608 7.644C100.083 7.21467 100.755 6.86 101.577 6.58C102.398 6.3 103.387 6.16 104.545 6.16C105.758 6.16 106.794 6.3 107.653 6.58C108.511 6.86 109.202 7.252 109.725 7.756C110.266 8.26 110.667 8.85733 110.929 9.548C111.19 10.22 111.321 10.9667 111.321 11.788V20.3C111.321 20.5053 111.246 20.6733 111.097 20.804C110.966 20.9347 110.807 21 110.621 21H107.373C107.167 21 106.999 20.9347 106.869 20.804C106.738 20.6733 106.673 20.5053 106.673 20.3V19.32C106.43 19.6747 106.103 20.0013 105.693 20.3C105.282 20.5987 104.797 20.832 104.237 21C103.695 21.1867 103.061 21.28 102.333 21.28ZM103.649 18.088C104.19 18.088 104.675 17.976 105.105 17.752C105.553 17.5093 105.898 17.1453 106.141 16.66C106.402 16.156 106.533 15.5307 106.533 14.784V14.392L104.153 14.812C103.275 14.9613 102.631 15.1947 102.221 15.512C101.829 15.8107 101.633 16.1653 101.633 16.576C101.633 16.8933 101.726 17.164 101.913 17.388C102.099 17.612 102.342 17.7893 102.641 17.92C102.939 18.032 103.275 18.088 103.649 18.088ZM119.095 21C118.815 21 118.609 20.9347 118.479 20.804C118.348 20.6547 118.236 20.4867 118.143 20.3L112.851 7.308C112.813 7.23333 112.795 7.14933 112.795 7.056C112.795 6.888 112.851 6.748 112.963 6.636C113.093 6.50533 113.252 6.44 113.439 6.44H116.603C116.845 6.44 117.032 6.50533 117.163 6.636C117.293 6.76667 117.377 6.89733 117.415 7.028L120.579 15.624L123.771 7.028C123.808 6.89733 123.892 6.76667 124.023 6.636C124.153 6.50533 124.34 6.44 124.583 6.44H127.747C127.915 6.44 128.064 6.50533 128.195 6.636C128.325 6.748 128.391 6.888 128.391 7.056C128.391 7.14933 128.372 7.23333 128.335 7.308L123.043 20.3C122.968 20.4867 122.856 20.6547 122.707 20.804C122.576 20.9347 122.361 21 122.063 21H119.095ZM136.585 21.28C134.382 21.28 132.627 20.6827 131.321 19.488C130.014 18.2933 129.333 16.52 129.277 14.168C129.277 14.0373 129.277 13.8693 129.277 13.664C129.277 13.4587 129.277 13.3 129.277 13.188C129.333 11.7133 129.659 10.4533 130.257 9.408C130.873 8.344 131.713 7.54133 132.777 7C133.859 6.44 135.119 6.16 136.557 6.16C138.199 6.16 139.553 6.48667 140.617 7.14C141.699 7.79333 142.511 8.68 143.053 9.8C143.594 10.92 143.865 12.1987 143.865 13.636V14.308C143.865 14.5133 143.79 14.6813 143.641 14.812C143.51 14.9427 143.351 15.008 143.165 15.008H134.205C134.205 15.0267 134.205 15.0547 134.205 15.092C134.205 15.1293 134.205 15.1667 134.205 15.204C134.223 15.7453 134.317 16.24 134.485 16.688C134.653 17.136 134.914 17.4907 135.269 17.752C135.623 18.0133 136.053 18.144 136.557 18.144C136.93 18.144 137.238 18.088 137.481 17.976C137.742 17.8453 137.957 17.7053 138.125 17.556C138.293 17.388 138.423 17.248 138.517 17.136C138.685 16.9493 138.815 16.8373 138.909 16.8C139.021 16.744 139.189 16.716 139.413 16.716H142.885C143.071 16.716 143.221 16.772 143.333 16.884C143.463 16.9773 143.519 17.1173 143.501 17.304C143.482 17.6213 143.323 18.004 143.025 18.452C142.726 18.9 142.287 19.348 141.709 19.796C141.149 20.2253 140.439 20.58 139.581 20.86C138.722 21.14 137.723 21.28 136.585 21.28ZM134.205 12.236H138.937V12.18C138.937 11.5827 138.843 11.06 138.657 10.612C138.489 10.164 138.218 9.81867 137.845 9.576C137.49 9.33333 137.061 9.212 136.557 9.212C136.053 9.212 135.623 9.33333 135.269 9.576C134.933 9.81867 134.671 10.164 134.485 10.612C134.298 11.06 134.205 11.5827 134.205 12.18V12.236ZM146.894 21C146.689 21 146.521 20.9347 146.39 20.804C146.259 20.6733 146.194 20.5053 146.194 20.3V16.744C146.194 16.5573 146.259 16.3987 146.39 16.268C146.521 16.1187 146.689 16.044 146.894 16.044H150.422C150.627 16.044 150.795 16.1187 150.926 16.268C151.075 16.3987 151.15 16.5573 151.15 16.744V20.3C151.15 20.5053 151.075 20.6733 150.926 20.804C150.795 20.9347 150.627 21 150.422 21H146.894ZM154.836 21C154.63 21 154.462 20.9347 154.332 20.804C154.201 20.6733 154.136 20.5053 154.136 20.3V7.14C154.136 6.93467 154.201 6.76667 154.332 6.636C154.462 6.50533 154.63 6.44 154.836 6.44H158.14C158.326 6.44 158.485 6.50533 158.616 6.636C158.765 6.76667 158.84 6.93467 158.84 7.14V20.3C158.84 20.5053 158.765 20.6733 158.616 20.804C158.485 20.9347 158.326 21 158.14 21H154.836ZM154.808 4.34C154.602 4.34 154.434 4.27467 154.304 4.144C154.173 4.01333 154.108 3.84533 154.108 3.64V1.148C154.108 0.942666 154.173 0.774666 154.304 0.643998C154.434 0.494666 154.602 0.42 154.808 0.42H158.14C158.345 0.42 158.513 0.494666 158.644 0.643998C158.793 0.774666 158.868 0.942666 158.868 1.148V3.64C158.868 3.84533 158.793 4.01333 158.644 4.144C158.513 4.27467 158.345 4.34 158.14 4.34H154.808ZM168.989 21.28C167.421 21.28 166.096 21.028 165.013 20.524C163.949 20.02 163.128 19.3013 162.549 18.368C161.989 17.416 161.672 16.2867 161.597 14.98C161.578 14.6067 161.569 14.1867 161.569 13.72C161.569 13.2347 161.578 12.8147 161.597 12.46C161.672 11.1347 162.008 10.0053 162.605 9.072C163.202 8.13867 164.033 7.42 165.097 6.916C166.18 6.412 167.477 6.16 168.989 6.16C170.52 6.16 171.817 6.412 172.881 6.916C173.964 7.42 174.804 8.13867 175.401 9.072C175.998 10.0053 176.334 11.1347 176.409 12.46C176.428 12.8147 176.437 13.2347 176.437 13.72C176.437 14.1867 176.428 14.6067 176.409 14.98C176.334 16.2867 176.008 17.416 175.429 18.368C174.869 19.3013 174.048 20.02 172.965 20.524C171.901 21.028 170.576 21.28 168.989 21.28ZM168.989 17.864C169.829 17.864 170.436 17.612 170.809 17.108C171.201 16.604 171.425 15.848 171.481 14.84C171.5 14.56 171.509 14.1867 171.509 13.72C171.509 13.2533 171.5 12.88 171.481 12.6C171.425 11.6107 171.201 10.864 170.809 10.36C170.436 9.83733 169.829 9.576 168.989 9.576C168.168 9.576 167.561 9.83733 167.169 10.36C166.777 10.864 166.562 11.6107 166.525 12.6C166.506 12.88 166.497 13.2533 166.497 13.72C166.497 14.1867 166.506 14.56 166.525 14.84C166.562 15.848 166.777 16.604 167.169 17.108C167.561 17.612 168.168 17.864 168.989 17.864Z" fill="white"/>
</svg>
