<svg width="19" height="19" viewBox="0 0 19 19" fill="none" xmlns="http://www.w3.org/2000/svg">
<path opacity="0.402367" fill-rule="evenodd" clip-rule="evenodd" d="M5.58323 0.057C6.59656 0.0110833 6.91996 0 9.5 0C12.08 0 12.4034 0.0110833 13.4168 0.057C14.9613 0.127458 16.317 0.505875 17.4056 1.59442C18.4945 2.68335 18.8725 4.03948 18.943 5.58323C18.9889 6.59656 19 6.91996 19 9.5C19 12.08 18.9889 12.4034 18.943 13.4168C18.8725 14.9613 18.4941 16.317 17.4056 17.4056C16.3166 18.4945 14.9601 18.8725 13.4168 18.943C12.4034 18.9889 12.08 19 9.5 19C6.91996 19 6.59656 18.9889 5.58323 18.943C4.03869 18.8725 2.68296 18.4941 1.59442 17.4056C0.505479 16.3166 0.127458 14.9605 0.057 13.4168C0.0110833 12.4034 0 12.08 0 9.5C0 6.91996 0.0110833 6.59656 0.057 5.58323C0.127458 4.03869 0.505875 2.68296 1.59442 1.59442C2.68335 0.505479 4.03948 0.127458 5.58323 0.057ZM13.3388 1.767C12.3369 1.72108 12.0365 1.71158 9.5 1.71158C6.9635 1.71158 6.66306 1.72148 5.66121 1.767C4.58019 1.81648 3.57675 2.033 2.80487 2.80487C2.033 3.57675 1.81648 4.58019 1.767 5.66121C1.72108 6.66306 1.71158 6.9635 1.71158 9.5C1.71158 12.0365 1.72148 12.3369 1.767 13.3388C1.81648 14.4198 2.033 15.4233 2.80487 16.1951C3.57675 16.967 4.58019 17.1835 5.66121 17.233C6.66267 17.2789 6.9631 17.2884 9.5 17.2884C12.0369 17.2884 12.3373 17.2785 13.3388 17.233C14.4198 17.1835 15.4233 16.967 16.1951 16.1951C16.967 15.4233 17.1835 14.4198 17.233 13.3388C17.2789 12.3369 17.2884 12.0365 17.2884 9.5C17.2884 6.9635 17.2785 6.66306 17.233 5.66121C17.1835 4.58019 16.967 3.57675 16.1951 2.80487C15.4233 2.033 14.4198 1.81648 13.3388 1.767Z" fill="#161C2D"/>
<path opacity="0.402367" fill-rule="evenodd" clip-rule="evenodd" d="M5.18164 9.93164C5.18164 7.30843 7.30804 5.18164 9.93164 5.18164C12.5552 5.18164 14.6816 7.30804 14.6816 9.93164C14.6816 12.5552 12.5552 14.6816 9.93164 14.6816C7.30804 14.6816 5.18164 12.5549 5.18164 9.93164ZM6.84823 9.93164C6.84823 11.6345 8.22883 13.0151 9.93164 13.0151C11.6345 13.0151 13.0151 11.6345 13.0151 9.93164C13.0151 8.22883 11.6345 6.84823 9.93164 6.84823C8.22883 6.84823 6.84823 8.22883 6.84823 9.93164Z" fill="#161C2D"/>
<circle opacity="0.402367" cx="14.2505" cy="4.75004" r="1.29545" fill="#161C2D"/>
</svg>
